<svg xmlns="http://www.w3.org/2000/svg" viewBox="0 0 1200 220" width="1200" height="220" role="img" preserveAspectRatio="none">
<rect width="1200" height="220" fill="#0D1117"/>
<circle cx="543" cy="122" r="1.9" fill="#8B949E" opacity=".25"><animate attributeName="opacity" values=".05;.45;.05" dur="5.6s" begin="2.0s" repeatCount="indefinite"/></circle>
<circle cx="705" cy="47" r="1.4" fill="#8B949E" opacity=".25"><animate attributeName="opacity" values=".05;.45;.05" dur="6.3s" begin="3.2s" repeatCount="indefinite"/></circle>
<circle cx="113" cy="71" r="0.9" fill="#8B949E" opacity=".25"><animate attributeName="opacity" values=".05;.45;.05" dur="7.1s" begin="2.8s" repeatCount="indefinite"/></circle>
<circle cx="50" cy="206" r="2.0" fill="#8B949E" opacity=".25"><animate attributeName="opacity" values=".05;.45;.05" dur="6.4s" begin="2.5s" repeatCount="indefinite"/></circle>
<circle cx="189" cy="13" r="1.4" fill="#8B949E" opacity=".25"><animate attributeName="opacity" values=".05;.45;.05" dur="3.8s" begin="0.8s" repeatCount="indefinite"/></circle>
<circle cx="290" cy="16" r="1.4" fill="#8B949E" opacity=".25"><animate attributeName="opacity" values=".05;.45;.05" dur="5.5s" begin="3.4s" repeatCount="indefinite"/></circle>
<circle cx="623" cy="138" r="1.4" fill="#8B949E" opacity=".25"><animate attributeName="opacity" values=".05;.45;.05" dur="6.5s" begin="1.8s" repeatCount="indefinite"/></circle>
<circle cx="334" cy="210" r="2.0" fill="#8B949E" opacity=".25"><animate attributeName="opacity" values=".05;.45;.05" dur="7.3s" begin="2.8s" repeatCount="indefinite"/></circle>
<circle cx="378" cy="56" r="1.1" fill="#8B949E" opacity=".25"><animate attributeName="opacity" values=".05;.45;.05" dur="3.8s" begin="3.1s" repeatCount="indefinite"/></circle>
<circle cx="480" cy="179" r="1.3" fill="#8B949E" opacity=".25"><animate attributeName="opacity" values=".05;.45;.05" dur="7.8s" begin="3.4s" repeatCount="indefinite"/></circle>
<circle cx="1" cy="52" r="1.9" fill="#8B949E" opacity=".25"><animate attributeName="opacity" values=".05;.45;.05" dur="5.6s" begin="3.9s" repeatCount="indefinite"/></circle>
<circle cx="477" cy="25" r="1.6" fill="#8B949E" opacity=".25"><animate attributeName="opacity" values=".05;.45;.05" dur="7.0s" begin="1.1s" repeatCount="indefinite"/></circle>
<circle cx="105" cy="77" r="2.0" fill="#8B949E" opacity=".25"><animate attributeName="opacity" values=".05;.45;.05" dur="6.9s" begin="0.5s" repeatCount="indefinite"/></circle>
<circle cx="296" cy="30" r="0.9" fill="#8B949E" opacity=".25"><animate attributeName="opacity" values=".05;.45;.05" dur="7.1s" begin="0.7s" repeatCount="indefinite"/></circle>
<circle cx="671" cy="99" r="1.0" fill="#8B949E" opacity=".25"><animate attributeName="opacity" values=".05;.45;.05" dur="6.8s" begin="0.5s" repeatCount="indefinite"/></circle>
<circle cx="772" cy="33" r="1.3" fill="#8B949E" opacity=".25"><animate attributeName="opacity" values=".05;.45;.05" dur="4.5s" begin="1.1s" repeatCount="indefinite"/></circle>
<circle cx="1165" cy="171" r="1.2" fill="#8B949E" opacity=".25"><animate attributeName="opacity" values=".05;.45;.05" dur="7.5s" begin="0.8s" repeatCount="indefinite"/></circle>
<circle cx="473" cy="181" r="1.6" fill="#8B949E" opacity=".25"><animate attributeName="opacity" values=".05;.45;.05" dur="4.0s" begin="4.0s" repeatCount="indefinite"/></circle>
<circle cx="256" cy="62" r="1.7" fill="#8B949E" opacity=".25"><animate attributeName="opacity" values=".05;.45;.05" dur="5.0s" begin="1.2s" repeatCount="indefinite"/></circle>
<circle cx="88" cy="28" r="1.5" fill="#8B949E" opacity=".25"><animate attributeName="opacity" values=".05;.45;.05" dur="4.6s" begin="2.4s" repeatCount="indefinite"/></circle>
<circle cx="446" cy="101" r="2.0" fill="#8B949E" opacity=".25"><animate attributeName="opacity" values=".05;.45;.05" dur="5.7s" begin="2.3s" repeatCount="indefinite"/></circle>
<circle cx="1040" cy="47" r="1.0" fill="#8B949E" opacity=".25"><animate attributeName="opacity" values=".05;.45;.05" dur="7.6s" begin="3.3s" repeatCount="indefinite"/></circle>
<circle cx="299" cy="48" r="1.7" fill="#8B949E" opacity=".25"><animate attributeName="opacity" values=".05;.45;.05" dur="7.7s" begin="0.8s" repeatCount="indefinite"/></circle>
<circle cx="1140" cy="186" r="1.5" fill="#8B949E" opacity=".25"><animate attributeName="opacity" values=".05;.45;.05" dur="5.4s" begin="0.4s" repeatCount="indefinite"/></circle>
<circle cx="46" cy="203" r="1.1" fill="#8B949E" opacity=".25"><animate attributeName="opacity" values=".05;.45;.05" dur="6.7s" begin="1.0s" repeatCount="indefinite"/></circle>
<circle cx="988" cy="129" r="1.2" fill="#8B949E" opacity=".25"><animate attributeName="opacity" values=".05;.45;.05" dur="4.3s" begin="2.9s" repeatCount="indefinite"/></circle>
<g><animateTransform attributeName="transform" type="translate" from="0,0" to="-400,0" dur="15s" repeatCount="indefinite"/><path d="M0 124.0L8 126.0L16 128.0L24 129.9L32 131.7L40 133.4L48 135.0L56 136.3L64 137.5L72 138.5L80 139.2L88 139.7L96 140.0L104 140.0L112 139.7L120 139.2L128 138.5L136 137.5L144 136.3L152 135.0L160 133.4L168 131.7L176 129.9L184 128.0L192 126.0L200 124.0L208 122.0L216 120.0L224 118.1L232 116.3L240 114.6L248 113.0L256 111.7L264 110.5L272 109.5L280 108.8L288 108.3L296 108.0L304 108.0L312 108.3L320 108.8L328 109.5L336 110.5L344 111.7L352 113.0L360 114.6L368 116.3L376 118.1L384 120.0L392 122.0L400 124.0L408 126.0L416 128.0L424 129.9L432 131.7L440 133.4L448 135.0L456 136.3L464 137.5L472 138.5L480 139.2L488 139.7L496 140.0L504 140.0L512 139.7L520 139.2L528 138.5L536 137.5L544 136.3L552 135.0L560 133.4L568 131.7L576 129.9L584 128.0L592 126.0L600 124.0L608 122.0L616 120.0L624 118.1L632 116.3L640 114.6L648 113.0L656 111.7L664 110.5L672 109.5L680 108.8L688 108.3L696 108.0L704 108.0L712 108.3L720 108.8L728 109.5L736 110.5L744 111.7L752 113.0L760 114.6L768 116.3L776 118.1L784 120.0L792 122.0L800 124.0L808 126.0L816 128.0L824 129.9L832 131.7L840 133.4L848 135.0L856 136.3L864 137.5L872 138.5L880 139.2L888 139.7L896 140.0L904 140.0L912 139.7L920 139.2L928 138.5L936 137.5L944 136.3L952 135.0L960 133.4L968 131.7L976 129.9L984 128.0L992 126.0L1000 124.0L1008 122.0L1016 120.0L1024 118.1L1032 116.3L1040 114.6L1048 113.0L1056 111.7L1064 110.5L1072 109.5L1080 108.8L1088 108.3L1096 108.0L1104 108.0L1112 108.3L1120 108.8L1128 109.5L1136 110.5L1144 111.7L1152 113.0L1160 114.6L1168 116.3L1176 118.1L1184 120.0L1192 122.0L1200 124.0L1208 126.0L1216 128.0L1224 129.9L1232 131.7L1240 133.4L1248 135.0L1256 136.3L1264 137.5L1272 138.5L1280 139.2L1288 139.7L1296 140.0L1304 140.0L1312 139.7L1320 139.2L1328 138.5L1336 137.5L1344 136.3L1352 135.0L1360 133.4L1368 131.7L1376 129.9L1384 128.0L1392 126.0L1400 124.0L1408 122.0L1416 120.0L1424 118.1L1432 116.3L1440 114.6L1448 113.0L1456 111.7L1464 110.5L1472 109.5L1480 108.8L1488 108.3L1496 108.0L1504 108.0L1512 108.3L1520 108.8L1528 109.5L1536 110.5L1544 111.7L1552 113.0L1560 114.6L1568 116.3L1576 118.1L1584 120.0L1592 122.0L1600 124.0L1600 220 L0 220 Z" fill="#1F6FEB" fill-opacity="0.22"/></g>
<g><animateTransform attributeName="transform" type="translate" from="0,0" to="-300,0" dur="11s" repeatCount="indefinite"/><path d="M0 146.0L8 149.7L16 153.2L24 156.6L32 159.7L40 162.3L48 164.6L56 166.3L64 167.4L72 168.0L80 167.9L88 167.2L96 165.9L104 164.1L112 161.7L120 158.9L128 155.8L136 152.4L144 148.8L152 145.1L160 141.4L168 137.9L176 134.6L184 131.6L192 129.0L200 126.9L208 125.4L216 124.4L224 124.0L232 124.2L240 125.1L248 126.5L256 128.5L264 130.9L272 133.8L280 137.1L288 140.5L296 144.2L304 147.8L312 151.5L320 154.9L328 158.2L336 161.1L344 163.5L352 165.5L360 166.9L368 167.8L376 168.0L384 167.6L392 166.6L400 165.1L408 163.0L416 160.4L424 157.4L432 154.1L440 150.6L448 146.9L456 143.2L464 139.6L472 136.2L480 133.1L488 130.3L496 127.9L504 126.1L512 124.8L520 124.1L528 124.0L536 124.6L544 125.7L552 127.4L560 129.7L568 132.3L576 135.4L584 138.8L592 142.3L600 146.0L608 149.7L616 153.2L624 156.6L632 159.7L640 162.3L648 164.6L656 166.3L664 167.4L672 168.0L680 167.9L688 167.2L696 165.9L704 164.1L712 161.7L720 158.9L728 155.8L736 152.4L744 148.8L752 145.1L760 141.4L768 137.9L776 134.6L784 131.6L792 129.0L800 126.9L808 125.4L816 124.4L824 124.0L832 124.2L840 125.1L848 126.5L856 128.5L864 130.9L872 133.8L880 137.1L888 140.5L896 144.2L904 147.8L912 151.5L920 154.9L928 158.2L936 161.1L944 163.5L952 165.5L960 166.9L968 167.8L976 168.0L984 167.6L992 166.6L1000 165.1L1008 163.0L1016 160.4L1024 157.4L1032 154.1L1040 150.6L1048 146.9L1056 143.2L1064 139.6L1072 136.2L1080 133.1L1088 130.3L1096 127.9L1104 126.1L1112 124.8L1120 124.1L1128 124.0L1136 124.6L1144 125.7L1152 127.4L1160 129.7L1168 132.3L1176 135.4L1184 138.8L1192 142.3L1200 146.0L1208 149.7L1216 153.2L1224 156.6L1232 159.7L1240 162.3L1248 164.6L1256 166.3L1264 167.4L1272 168.0L1280 167.9L1288 167.2L1296 165.9L1304 164.1L1312 161.7L1320 158.9L1328 155.8L1336 152.4L1344 148.8L1352 145.1L1360 141.4L1368 137.9L1376 134.6L1384 131.6L1392 129.0L1400 126.9L1408 125.4L1416 124.4L1424 124.0L1432 124.2L1440 125.1L1448 126.5L1456 128.5L1464 130.9L1472 133.8L1480 137.1L1488 140.5L1496 144.2L1500 220 L0 220 Z" fill="#3FB950" fill-opacity="0.24"/></g>
<g><animateTransform attributeName="transform" type="translate" from="0,0" to="-240,0" dur="8s" repeatCount="indefinite"/><path d="M0 166.0L8 169.7L16 173.3L24 176.6L32 179.4L40 181.6L48 183.1L56 183.9L64 183.9L72 183.1L80 181.6L88 179.4L96 176.6L104 173.3L112 169.7L120 166.0L128 162.3L136 158.7L144 155.4L152 152.6L160 150.4L168 148.9L176 148.1L184 148.1L192 148.9L200 150.4L208 152.6L216 155.4L224 158.7L232 162.3L240 166.0L248 169.7L256 173.3L264 176.6L272 179.4L280 181.6L288 183.1L296 183.9L304 183.9L312 183.1L320 181.6L328 179.4L336 176.6L344 173.3L352 169.7L360 166.0L368 162.3L376 158.7L384 155.4L392 152.6L400 150.4L408 148.9L416 148.1L424 148.1L432 148.9L440 150.4L448 152.6L456 155.4L464 158.7L472 162.3L480 166.0L488 169.7L496 173.3L504 176.6L512 179.4L520 181.6L528 183.1L536 183.9L544 183.9L552 183.1L560 181.6L568 179.4L576 176.6L584 173.3L592 169.7L600 166.0L608 162.3L616 158.7L624 155.4L632 152.6L640 150.4L648 148.9L656 148.1L664 148.1L672 148.9L680 150.4L688 152.6L696 155.4L704 158.7L712 162.3L720 166.0L728 169.7L736 173.3L744 176.6L752 179.4L760 181.6L768 183.1L776 183.9L784 183.9L792 183.1L800 181.6L808 179.4L816 176.6L824 173.3L832 169.7L840 166.0L848 162.3L856 158.7L864 155.4L872 152.6L880 150.4L888 148.9L896 148.1L904 148.1L912 148.9L920 150.4L928 152.6L936 155.4L944 158.7L952 162.3L960 166.0L968 169.7L976 173.3L984 176.6L992 179.4L1000 181.6L1008 183.1L1016 183.9L1024 183.9L1032 183.1L1040 181.6L1048 179.4L1056 176.6L1064 173.3L1072 169.7L1080 166.0L1088 162.3L1096 158.7L1104 155.4L1112 152.6L1120 150.4L1128 148.9L1136 148.1L1144 148.1L1152 148.9L1160 150.4L1168 152.6L1176 155.4L1184 158.7L1192 162.3L1200 166.0L1208 169.7L1216 173.3L1224 176.6L1232 179.4L1240 181.6L1248 183.1L1256 183.9L1264 183.9L1272 183.1L1280 181.6L1288 179.4L1296 176.6L1304 173.3L1312 169.7L1320 166.0L1328 162.3L1336 158.7L1344 155.4L1352 152.6L1360 150.4L1368 148.9L1376 148.1L1384 148.1L1392 148.9L1400 150.4L1408 152.6L1416 155.4L1424 158.7L1432 162.3L1440 166.0L1440 220 L0 220 Z" fill="#BC8CFF" fill-opacity="0.2"/></g>
<g><animateTransform attributeName="transform" type="translate" from="0,0" to="-200,0" dur="6.5s" repeatCount="indefinite"/><path d="M0 188.0L8 191.2L16 194.3L24 196.9L32 199.0L40 200.4L48 201.0L56 200.8L64 199.8L72 198.0L80 195.6L88 192.8L96 189.6L104 186.4L112 183.2L120 180.4L128 178.0L136 176.2L144 175.2L152 175.0L160 175.6L168 177.0L176 179.1L184 181.7L192 184.8L200 188.0L208 191.2L216 194.3L224 196.9L232 199.0L240 200.4L248 201.0L256 200.8L264 199.8L272 198.0L280 195.6L288 192.8L296 189.6L304 186.4L312 183.2L320 180.4L328 178.0L336 176.2L344 175.2L352 175.0L360 175.6L368 177.0L376 179.1L384 181.7L392 184.8L400 188.0L408 191.2L416 194.3L424 196.9L432 199.0L440 200.4L448 201.0L456 200.8L464 199.8L472 198.0L480 195.6L488 192.8L496 189.6L504 186.4L512 183.2L520 180.4L528 178.0L536 176.2L544 175.2L552 175.0L560 175.6L568 177.0L576 179.1L584 181.7L592 184.8L600 188.0L608 191.2L616 194.3L624 196.9L632 199.0L640 200.4L648 201.0L656 200.8L664 199.8L672 198.0L680 195.6L688 192.8L696 189.6L704 186.4L712 183.2L720 180.4L728 178.0L736 176.2L744 175.2L752 175.0L760 175.6L768 177.0L776 179.1L784 181.7L792 184.8L800 188.0L808 191.2L816 194.3L824 196.9L832 199.0L840 200.4L848 201.0L856 200.8L864 199.8L872 198.0L880 195.6L888 192.8L896 189.6L904 186.4L912 183.2L920 180.4L928 178.0L936 176.2L944 175.2L952 175.0L960 175.6L968 177.0L976 179.1L984 181.7L992 184.8L1000 188.0L1008 191.2L1016 194.3L1024 196.9L1032 199.0L1040 200.4L1048 201.0L1056 200.8L1064 199.8L1072 198.0L1080 195.6L1088 192.8L1096 189.6L1104 186.4L1112 183.2L1120 180.4L1128 178.0L1136 176.2L1144 175.2L1152 175.0L1160 175.6L1168 177.0L1176 179.1L1184 181.7L1192 184.8L1200 188.0L1208 191.2L1216 194.3L1224 196.9L1232 199.0L1240 200.4L1248 201.0L1256 200.8L1264 199.8L1272 198.0L1280 195.6L1288 192.8L1296 189.6L1304 186.4L1312 183.2L1320 180.4L1328 178.0L1336 176.2L1344 175.2L1352 175.0L1360 175.6L1368 177.0L1376 179.1L1384 181.7L1392 184.8L1400 188.0L1400 220 L0 220 Z" fill="#0D1117" fill-opacity="0.92"/></g>
<g><animateTransform attributeName="transform" type="translate" from="0,0" to="-240,0" dur="8s" repeatCount="indefinite"/><path d="M0 166.0L8 169.7L16 173.3L24 176.6L32 179.4L40 181.6L48 183.1L56 183.9L64 183.9L72 183.1L80 181.6L88 179.4L96 176.6L104 173.3L112 169.7L120 166.0L128 162.3L136 158.7L144 155.4L152 152.6L160 150.4L168 148.9L176 148.1L184 148.1L192 148.9L200 150.4L208 152.6L216 155.4L224 158.7L232 162.3L240 166.0L248 169.7L256 173.3L264 176.6L272 179.4L280 181.6L288 183.1L296 183.9L304 183.9L312 183.1L320 181.6L328 179.4L336 176.6L344 173.3L352 169.7L360 166.0L368 162.3L376 158.7L384 155.4L392 152.6L400 150.4L408 148.9L416 148.1L424 148.1L432 148.9L440 150.4L448 152.6L456 155.4L464 158.7L472 162.3L480 166.0L488 169.7L496 173.3L504 176.6L512 179.4L520 181.6L528 183.1L536 183.9L544 183.9L552 183.1L560 181.6L568 179.4L576 176.6L584 173.3L592 169.7L600 166.0L608 162.3L616 158.7L624 155.4L632 152.6L640 150.4L648 148.9L656 148.1L664 148.1L672 148.9L680 150.4L688 152.6L696 155.4L704 158.7L712 162.3L720 166.0L728 169.7L736 173.3L744 176.6L752 179.4L760 181.6L768 183.1L776 183.9L784 183.9L792 183.1L800 181.6L808 179.4L816 176.6L824 173.3L832 169.7L840 166.0L848 162.3L856 158.7L864 155.4L872 152.6L880 150.4L888 148.9L896 148.1L904 148.1L912 148.9L920 150.4L928 152.6L936 155.4L944 158.7L952 162.3L960 166.0L968 169.7L976 173.3L984 176.6L992 179.4L1000 181.6L1008 183.1L1016 183.9L1024 183.9L1032 183.1L1040 181.6L1048 179.4L1056 176.6L1064 173.3L1072 169.7L1080 166.0L1088 162.3L1096 158.7L1104 155.4L1112 152.6L1120 150.4L1128 148.9L1136 148.1L1144 148.1L1152 148.9L1160 150.4L1168 152.6L1176 155.4L1184 158.7L1192 162.3L1200 166.0L1208 169.7L1216 173.3L1224 176.6L1232 179.4L1240 181.6L1248 183.1L1256 183.9L1264 183.9L1272 183.1L1280 181.6L1288 179.4L1296 176.6L1304 173.3L1312 169.7L1320 166.0L1328 162.3L1336 158.7L1344 155.4L1352 152.6L1360 150.4L1368 148.9L1376 148.1L1384 148.1L1392 148.9L1400 150.4L1408 152.6L1416 155.4L1424 158.7L1432 162.3L1440 166.0" fill="none" stroke="#BC8CFF" stroke-width="1.6" stroke-opacity=".55"/></g>
</svg>
