<svg xmlns="http://www.w3.org/2000/svg" viewBox="0 0 1200 150" width="1200" height="150" role="img" preserveAspectRatio="none">
<rect width="1200" height="150" fill="#0D1117"/>
<circle cx="556" cy="36" r="0.9" fill="#8B949E" opacity=".22"><animate attributeName="opacity" values=".06;.42;.06" dur="7.4s" begin="0.0s" repeatCount="indefinite"/></circle>
<circle cx="603" cy="75" r="0.8" fill="#8B949E" opacity=".22"><animate attributeName="opacity" values=".06;.42;.06" dur="6.0s" begin="2.5s" repeatCount="indefinite"/></circle>
<circle cx="49" cy="36" r="1.5" fill="#8B949E" opacity=".22"><animate attributeName="opacity" values=".06;.42;.06" dur="5.5s" begin="2.9s" repeatCount="indefinite"/></circle>
<circle cx="189" cy="26" r="0.8" fill="#8B949E" opacity=".22"><animate attributeName="opacity" values=".06;.42;.06" dur="5.8s" begin="3.7s" repeatCount="indefinite"/></circle>
<circle cx="709" cy="66" r="1.2" fill="#8B949E" opacity=".22"><animate attributeName="opacity" values=".06;.42;.06" dur="6.9s" begin="0.4s" repeatCount="indefinite"/></circle>
<circle cx="349" cy="58" r="1.6" fill="#8B949E" opacity=".22"><animate attributeName="opacity" values=".06;.42;.06" dur="5.4s" begin="0.4s" repeatCount="indefinite"/></circle>
<circle cx="320" cy="24" r="1.0" fill="#8B949E" opacity=".22"><animate attributeName="opacity" values=".06;.42;.06" dur="7.1s" begin="0.8s" repeatCount="indefinite"/></circle>
<circle cx="1064" cy="74" r="0.8" fill="#8B949E" opacity=".22"><animate attributeName="opacity" values=".06;.42;.06" dur="5.2s" begin="2.0s" repeatCount="indefinite"/></circle>
<circle cx="28" cy="40" r="1.8" fill="#8B949E" opacity=".22"><animate attributeName="opacity" values=".06;.42;.06" dur="4.0s" begin="2.4s" repeatCount="indefinite"/></circle>
<circle cx="145" cy="51" r="1.8" fill="#8B949E" opacity=".22"><animate attributeName="opacity" values=".06;.42;.06" dur="4.4s" begin="0.0s" repeatCount="indefinite"/></circle>
<circle cx="100" cy="48" r="0.7" fill="#8B949E" opacity=".22"><animate attributeName="opacity" values=".06;.42;.06" dur="3.9s" begin="2.0s" repeatCount="indefinite"/></circle>
<circle cx="1105" cy="39" r="1.2" fill="#8B949E" opacity=".22"><animate attributeName="opacity" values=".06;.42;.06" dur="6.4s" begin="0.4s" repeatCount="indefinite"/></circle>
<circle cx="696" cy="21" r="1.4" fill="#8B949E" opacity=".22"><animate attributeName="opacity" values=".06;.42;.06" dur="7.8s" begin="0.2s" repeatCount="indefinite"/></circle>
<circle cx="666" cy="53" r="0.9" fill="#8B949E" opacity=".22"><animate attributeName="opacity" values=".06;.42;.06" dur="4.7s" begin="4.0s" repeatCount="indefinite"/></circle>
<circle cx="1198" cy="17" r="1.5" fill="#8B949E" opacity=".22"><animate attributeName="opacity" values=".06;.42;.06" dur="7.8s" begin="0.9s" repeatCount="indefinite"/></circle>
<circle cx="733" cy="11" r="1.1" fill="#8B949E" opacity=".22"><animate attributeName="opacity" values=".06;.42;.06" dur="6.5s" begin="2.4s" repeatCount="indefinite"/></circle>
<g><animateTransform attributeName="transform" type="translate" from="0,0" to="-420,0" dur="16s" repeatCount="indefinite"/><path d="M0 74.0L8 75.9L16 77.8L24 79.6L32 81.4L40 83.0L48 84.5L56 85.9L64 87.1L72 88.1L80 88.9L88 89.5L96 89.9L104 90.0L112 89.9L120 89.6L128 89.1L136 88.3L144 87.4L152 86.2L160 84.9L168 83.4L176 81.8L184 80.1L192 78.3L200 76.4L208 74.5L216 72.6L224 70.7L232 68.8L240 67.1L248 65.4L256 63.8L264 62.4L272 61.2L280 60.1L288 59.3L296 58.6L304 58.2L312 58.0L320 58.0L328 58.3L336 58.8L344 59.5L352 60.4L360 61.5L368 62.8L376 64.2L384 65.8L392 67.5L400 69.3L408 71.1L416 73.0L424 75.0L432 76.9L440 78.7L448 80.5L456 82.2L464 83.8L472 85.2L480 86.5L488 87.6L496 88.5L504 89.2L512 89.7L520 90.0L528 90.0L536 89.8L544 89.4L552 88.7L560 87.9L568 86.8L576 85.6L584 84.2L592 82.6L600 80.9L608 79.2L616 77.3L624 75.4L632 73.5L640 71.6L648 69.7L656 67.9L664 66.2L672 64.6L680 63.1L688 61.8L696 60.6L704 59.7L712 58.9L720 58.4L728 58.1L736 58.0L744 58.1L752 58.5L760 59.1L768 59.9L776 60.9L784 62.1L792 63.5L800 65.0L808 66.6L816 68.4L824 70.2L832 72.1L840 74.0L848 75.9L856 77.8L864 79.6L872 81.4L880 83.0L888 84.5L896 85.9L904 87.1L912 88.1L920 88.9L928 89.5L936 89.9L944 90.0L952 89.9L960 89.6L968 89.1L976 88.3L984 87.4L992 86.2L1000 84.9L1008 83.4L1016 81.8L1024 80.1L1032 78.3L1040 76.4L1048 74.5L1056 72.6L1064 70.7L1072 68.8L1080 67.1L1088 65.4L1096 63.8L1104 62.4L1112 61.2L1120 60.1L1128 59.3L1136 58.6L1144 58.2L1152 58.0L1160 58.0L1168 58.3L1176 58.8L1184 59.5L1192 60.4L1200 61.5L1208 62.8L1216 64.2L1224 65.8L1232 67.5L1240 69.3L1248 71.1L1256 73.0L1264 75.0L1272 76.9L1280 78.7L1288 80.5L1296 82.2L1304 83.8L1312 85.2L1320 86.5L1328 87.6L1336 88.5L1344 89.2L1352 89.7L1360 90.0L1368 90.0L1376 89.8L1384 89.4L1392 88.7L1400 87.9L1408 86.8L1416 85.6L1424 84.2L1432 82.6L1440 80.9L1448 79.2L1456 77.3L1464 75.4L1472 73.5L1480 71.6L1488 69.7L1496 67.9L1504 66.2L1512 64.6L1520 63.1L1528 61.8L1536 60.6L1544 59.7L1552 58.9L1560 58.4L1568 58.1L1576 58.0L1584 58.1L1592 58.5L1600 59.1L1608 59.9L1616 60.9L1620 0 L0 0 Z" fill="#1F6FEB" fill-opacity="0.34"/></g>
<g><animateTransform attributeName="transform" type="translate" from="0,0" to="-330,0" dur="12s" repeatCount="indefinite"/><path d="M0 54.0L8 57.0L16 60.0L24 62.8L32 65.4L40 67.8L48 69.8L56 71.5L64 72.8L72 73.6L80 74.0L88 73.9L96 73.3L104 72.3L112 70.9L120 69.1L128 67.0L136 64.5L144 61.8L152 58.9L160 55.9L168 52.9L176 49.8L184 46.9L192 44.2L200 41.6L208 39.4L216 37.5L224 36.0L232 34.9L240 34.2L248 34.0L256 34.3L264 35.0L272 36.1L280 37.7L288 39.7L296 41.9L304 44.5L312 47.3L320 50.2L328 53.2L336 56.3L344 59.3L352 62.1L360 64.8L368 67.2L376 69.4L384 71.1L392 72.5L400 73.4L408 73.9L416 74.0L424 73.5L432 72.6L440 71.3L448 69.6L456 67.5L464 65.1L472 62.5L480 59.6L488 56.7L496 53.6L504 50.6L512 47.6L520 44.8L528 42.2L536 39.9L544 37.9L552 36.3L560 35.1L568 34.3L576 34.0L584 34.2L592 34.8L600 35.8L608 37.3L616 39.1L624 41.3L632 43.8L640 46.6L648 49.5L656 52.5L664 55.5L672 58.5L680 61.4L688 64.2L696 66.7L704 68.9L712 70.7L720 72.2L728 73.2L736 73.8L744 74.0L752 73.7L760 72.9L768 71.7L776 70.1L784 68.1L792 65.8L800 63.2L808 60.4L816 57.4L824 54.4L832 51.3L840 48.4L848 45.5L856 42.9L864 40.5L872 38.4L880 36.7L888 35.4L896 34.5L904 34.0L912 34.1L920 34.6L928 35.5L936 36.9L944 38.6L952 40.8L960 43.2L968 45.9L976 48.7L984 51.7L992 54.8L1000 57.8L1008 60.7L1016 63.5L1024 66.1L1032 68.3L1040 70.3L1048 71.9L1056 73.0L1064 73.7L1072 74.0L1080 73.8L1088 73.1L1096 72.0L1104 70.5L1112 68.6L1120 66.4L1128 63.8L1136 61.1L1144 58.2L1152 55.1L1160 52.1L1168 49.1L1176 46.2L1184 43.5L1192 41.0L1200 38.9L1208 37.1L1216 35.7L1224 34.7L1232 34.1L1240 34.0L1248 34.4L1256 35.2L1264 36.5L1272 38.2L1280 40.2L1288 42.6L1296 45.2L1304 48.0L1312 51.0L1320 54.0L1328 57.0L1336 60.0L1344 62.8L1352 65.4L1360 67.8L1368 69.8L1376 71.5L1384 72.8L1392 73.6L1400 74.0L1408 73.9L1416 73.3L1424 72.3L1432 70.9L1440 69.1L1448 67.0L1456 64.5L1464 61.8L1472 58.9L1480 55.9L1488 52.9L1496 49.8L1504 46.9L1512 44.2L1520 41.6L1528 39.4L1530 0 L0 0 Z" fill="#3FB950" fill-opacity="0.3"/></g>
<g><animateTransform attributeName="transform" type="translate" from="0,0" to="-265,0" dur="9s" repeatCount="indefinite"/><path d="M0 36.0L8 38.8L16 41.6L24 44.1L32 46.3L40 48.2L48 49.6L56 50.6L64 51.0L72 50.9L80 50.2L88 49.0L96 47.4L104 45.4L112 43.0L120 40.4L128 37.6L136 34.8L144 32.0L152 29.3L160 26.9L168 24.8L176 23.1L184 21.9L192 21.2L200 21.0L208 21.4L216 22.2L224 23.6L232 25.4L240 27.6L248 30.1L256 32.8L264 35.6L272 38.5L280 41.2L288 43.8L296 46.1L304 48.0L312 49.5L320 50.5L328 51.0L336 50.9L344 50.3L352 49.2L360 47.6L368 45.7L376 43.3L384 40.7L392 38.0L400 35.1L408 32.3L416 29.6L424 27.2L432 25.1L440 23.3L448 22.0L456 21.3L464 21.0L472 21.3L480 22.1L488 23.4L496 25.2L504 27.3L512 29.8L520 32.5L528 35.3L536 38.1L544 40.9L552 43.5L560 45.8L568 47.8L576 49.3L584 50.4L592 50.9L600 50.9L608 50.4L616 49.4L624 47.9L632 45.9L640 43.6L648 41.1L656 38.3L664 35.5L672 32.6L680 30.0L688 27.5L696 25.3L704 23.5L712 22.2L720 21.3L728 21.0L736 21.2L744 22.0L752 23.2L760 24.9L768 27.0L776 29.5L784 32.1L792 34.9L800 37.8L808 40.6L816 43.2L824 45.5L832 47.5L840 49.1L848 50.3L856 50.9L864 51.0L872 50.5L880 49.5L888 48.1L896 46.2L904 43.9L912 41.4L920 38.7L928 35.8L936 33.0L944 30.3L952 27.8L960 25.6L968 23.7L976 22.3L984 21.4L992 21.0L1000 21.2L1008 21.8L1016 23.0L1024 24.7L1032 26.8L1040 29.2L1048 31.8L1056 34.6L1064 37.4L1072 40.2L1080 42.8L1088 45.2L1096 47.3L1104 49.0L1112 50.2L1120 50.8L1128 51.0L1136 50.6L1144 49.7L1152 48.3L1160 46.4L1168 44.2L1176 41.7L1184 39.0L1192 36.2L1200 33.3L1208 30.6L1216 28.1L1224 25.8L1232 23.9L1240 22.5L1248 21.5L1256 21.0L1264 21.1L1272 21.7L1280 22.9L1288 24.5L1296 26.5L1304 28.8L1312 31.4L1320 34.2L1328 37.1L1336 39.9L1344 42.5L1352 45.0L1360 47.1L1368 48.8L1376 50.0L1384 50.8L1392 51.0L1400 50.7L1408 49.8L1416 48.5L1424 46.7L1432 44.5L1440 42.0L1448 39.4L1456 36.5L1464 33.7L1465 0 L0 0 Z" fill="#BC8CFF" fill-opacity="0.26"/></g>
<g><animateTransform attributeName="transform" type="translate" from="0,0" to="-215,0" dur="7s" repeatCount="indefinite"/><path d="M0 18.0L8 20.5L16 23.0L24 25.1L32 26.9L40 28.1L48 28.8L56 29.0L64 28.5L72 27.5L80 25.9L88 23.9L96 21.6L104 19.1L112 16.6L120 14.1L128 11.8L136 9.9L144 8.4L152 7.4L160 7.0L168 7.2L176 8.0L184 9.3L192 11.2L200 13.3L208 15.8L216 18.3L224 20.9L232 23.2L240 25.3L248 27.0L256 28.2L264 28.9L272 29.0L280 28.4L288 27.3L296 25.7L304 23.7L312 21.3L320 18.8L328 16.2L336 13.8L344 11.5L352 9.6L360 8.2L368 7.3L376 7.0L384 7.3L392 8.1L400 9.5L408 11.4L416 13.6L424 16.1L432 18.6L440 21.2L448 23.5L456 25.6L464 27.2L472 28.4L480 28.9L488 28.9L496 28.3L504 27.1L512 25.5L520 23.4L528 21.0L536 18.5L544 15.9L552 13.5L560 11.3L568 9.4L576 8.1L584 7.2L592 7.0L600 7.4L608 8.3L616 9.8L624 11.7L632 13.9L640 16.4L648 19.0L656 21.5L664 23.8L672 25.8L680 27.4L688 28.5L696 29.0L704 28.9L712 28.2L720 26.9L728 25.2L736 23.1L744 20.7L752 18.2L760 15.6L768 13.2L776 11.0L784 9.2L792 7.9L800 7.2L808 7.0L816 7.4L824 8.4L832 10.0L840 11.9L848 14.2L856 16.7L864 19.3L872 21.8L880 24.1L888 26.0L896 27.6L904 28.6L912 29.0L920 28.8L928 28.1L936 26.8L944 25.0L952 22.8L960 20.4L968 17.8L976 15.3L984 12.9L992 10.8L1000 9.1L1008 7.8L1016 7.1L1024 7.0L1032 7.5L1040 8.6L1048 10.2L1056 12.2L1064 14.5L1072 17.0L1080 19.6L1088 22.1L1096 24.3L1104 26.2L1112 27.7L1120 28.6L1128 29.0L1136 28.8L1144 27.9L1152 26.6L1160 24.7L1168 22.5L1176 20.1L1184 17.5L1192 15.0L1200 12.6L1208 10.5L1216 8.9L1224 7.7L1232 7.1L1240 7.1L1248 7.6L1256 8.8L1264 10.4L1272 12.5L1280 14.8L1288 17.4L1296 19.9L1304 22.4L1312 24.6L1320 26.5L1328 27.9L1336 28.7L1344 29.0L1352 28.7L1360 27.8L1368 26.4L1376 24.5L1384 22.2L1392 19.8L1400 17.2L1408 14.7L1415 0 L0 0 Z" fill="#0D1117" fill-opacity="0.88"/></g>
</svg>
