<svg xmlns="http://www.w3.org/2000/svg" viewBox="0 0 900 330" width="900" height="330" role="img">
<rect width="900" height="330" fill="#000000"/>
<text x="40" y="46" font-family="ui-monospace,'JetBrains Mono','Fira Code',Consolas,monospace" font-size="13" font-weight="700" letter-spacing=".22em" fill="#8B949E">WHERE THE HOURS GO</text>
<text x="40" y="70" font-family="ui-monospace,'JetBrains Mono','Fira Code',Consolas,monospace" font-size="11.5" fill="#4A4A4A">2026-08-22  -&gt;  2026-08-29</text>
<circle cx="208" cy="178" r="58" fill="none" stroke="#141414" stroke-width="1"/>
<circle cx="208" cy="178" r="82" fill="none" stroke="#141414" stroke-width="1"/>
<circle cx="208" cy="178" r="104" fill="none" stroke="#141414" stroke-width="1"/>
<line x1="208.0" y1="88.6" x2="208.0" y2="74.0" stroke="#242424" stroke-width="1.4"/>
<line x1="233.0" y1="84.6" x2="234.9" y2="77.5" stroke="#3A3A3A" stroke-width="1.4"/>
<line x1="256.4" y1="94.2" x2="260.0" y2="87.9" stroke="#3A3A3A" stroke-width="1.4"/>
<line x1="276.4" y1="109.6" x2="281.5" y2="104.5" stroke="#3A3A3A" stroke-width="1.4"/>
<line x1="291.8" y1="129.6" x2="298.1" y2="126.0" stroke="#3A3A3A" stroke-width="1.4"/>
<line x1="301.4" y1="153.0" x2="308.5" y2="151.1" stroke="#3A3A3A" stroke-width="1.4"/>
<line x1="297.4" y1="178.0" x2="312.0" y2="178.0" stroke="#242424" stroke-width="1.4"/>
<line x1="301.4" y1="203.0" x2="308.5" y2="204.9" stroke="#3A3A3A" stroke-width="1.4"/>
<line x1="291.8" y1="226.4" x2="298.1" y2="230.0" stroke="#3A3A3A" stroke-width="1.4"/>
<line x1="276.4" y1="246.4" x2="281.5" y2="251.5" stroke="#3A3A3A" stroke-width="1.4"/>
<line x1="256.4" y1="261.8" x2="260.0" y2="268.1" stroke="#3A3A3A" stroke-width="1.4"/>
<line x1="233.0" y1="271.4" x2="234.9" y2="278.5" stroke="#3A3A3A" stroke-width="1.4"/>
<line x1="208.0" y1="267.4" x2="208.0" y2="282.0" stroke="#242424" stroke-width="1.4"/>
<line x1="183.0" y1="271.4" x2="181.1" y2="278.5" stroke="#3A3A3A" stroke-width="1.4"/>
<line x1="159.6" y1="261.8" x2="156.0" y2="268.1" stroke="#3A3A3A" stroke-width="1.4"/>
<line x1="139.6" y1="246.4" x2="134.5" y2="251.5" stroke="#3A3A3A" stroke-width="1.4"/>
<line x1="124.2" y1="226.4" x2="117.9" y2="230.0" stroke="#3A3A3A" stroke-width="1.4"/>
<line x1="114.6" y1="203.0" x2="107.5" y2="204.9" stroke="#3A3A3A" stroke-width="1.4"/>
<line x1="118.6" y1="178.0" x2="104.0" y2="178.0" stroke="#242424" stroke-width="1.4"/>
<line x1="114.6" y1="153.0" x2="107.5" y2="151.1" stroke="#3A3A3A" stroke-width="1.4"/>
<line x1="124.2" y1="129.6" x2="117.9" y2="126.0" stroke="#3A3A3A" stroke-width="1.4"/>
<line x1="139.6" y1="109.6" x2="134.5" y2="104.5" stroke="#3A3A3A" stroke-width="1.4"/>
<line x1="159.6" y1="94.2" x2="156.0" y2="87.9" stroke="#3A3A3A" stroke-width="1.4"/>
<line x1="183.0" y1="84.6" x2="181.1" y2="77.5" stroke="#3A3A3A" stroke-width="1.4"/>
<path d="M208.0 105.2 A72.8 72.8 0 1 1 144.3 213.2" fill="none" stroke="#8B949E" stroke-width="13" stroke-linecap="butt" stroke-dasharray="306.3" stroke-dashoffset="306.3"><animate attributeName="stroke-dashoffset" values="306.3;0" dur="1.1s" begin="0.00s" fill="freeze" calcMode="spline" keySplines="0.2 0.7 0.3 1"/><animate attributeName="opacity" values="1;.55;1" dur="3.0s" begin="1.20s" repeatCount="indefinite"/></path>
<path d="M144.3 213.2 A72.8 72.8 0 0 1 171.1 115.3" fill="none" stroke="#6E7681" stroke-width="13" stroke-linecap="butt" stroke-dasharray="112.4" stroke-dashoffset="112.4"><animate attributeName="stroke-dashoffset" values="112.4;0" dur="1.1s" begin="0.15s" fill="freeze" calcMode="spline" keySplines="0.2 0.7 0.3 1"/><animate attributeName="opacity" values="1;.55;1" dur="3.4s" begin="1.35s" repeatCount="indefinite"/></path>
<path d="M171.1 115.3 A72.8 72.8 0 0 1 208.0 105.2" fill="none" stroke="#3178C6" stroke-width="13" stroke-linecap="butt" stroke-dasharray="38.7" stroke-dashoffset="38.7"><animate attributeName="stroke-dashoffset" values="38.7;0" dur="1.1s" begin="0.30s" fill="freeze" calcMode="spline" keySplines="0.2 0.7 0.3 1"/><animate attributeName="opacity" values="1;.55;1" dur="3.8s" begin="1.50s" repeatCount="indefinite"/></path>
<text x="208" y="174" text-anchor="middle" font-family="ui-monospace,'JetBrains Mono','Fira Code',Consolas,monospace" font-size="24" font-weight="700" fill="#FFFFFF">1<tspan font-size="13" fill="#8B949E"> hrs</tspan></text>
<text x="208" y="198" text-anchor="middle" font-family="ui-monospace,'JetBrains Mono','Fira Code',Consolas,monospace" font-size="10.5" letter-spacing=".18em" fill="#4A4A4A">LAST 7 DAYS</text>
<g opacity="0"><animate attributeName="opacity" values="0;1" dur="0.45s" begin="0.00s" fill="freeze"/><circle cx="400" cy="114" r="4.2" fill="#8B949E"><animate attributeName="opacity" values="1;.35;1" dur="2.4s" begin="0.00s" repeatCount="indefinite"/></circle><text x="415" y="118" font-family="ui-monospace,'JetBrains Mono','Fira Code',Consolas,monospace" font-size="12" font-weight="700" fill="#8B949E">Markdown</text><text x="540" y="118" font-family="ui-monospace,'JetBrains Mono','Fira Code',Consolas,monospace" font-size="11" fill="#8B949E">1 hr 14 mins</text><rect x="415" y="124" width="300" height="5" rx="2.5" fill="#141414"/><rect x="415" y="124" width="0" height="5" rx="2.5" fill="#8B949E" fill-opacity=".85"><animate attributeName="width" values="0;200.9" dur="1.2s" begin="0.20s" fill="freeze" calcMode="spline" keySplines="0.2 0.7 0.3 1"/></rect><text x="726" y="118" text-anchor="end" font-family="ui-monospace,'JetBrains Mono','Fira Code',Consolas,monospace" font-size="11" font-weight="700" fill="#8B949E">67.0%</text></g>
<g opacity="0"><animate attributeName="opacity" values="0;1" dur="0.45s" begin="0.12s" fill="freeze"/><circle cx="400" cy="146" r="4.2" fill="#6E7681"><animate attributeName="opacity" values="1;.35;1" dur="2.7s" begin="0.30s" repeatCount="indefinite"/></circle><text x="415" y="150" font-family="ui-monospace,'JetBrains Mono','Fira Code',Consolas,monospace" font-size="12" font-weight="700" fill="#6E7681">Other</text><text x="540" y="150" font-family="ui-monospace,'JetBrains Mono','Fira Code',Consolas,monospace" font-size="11" fill="#8B949E">27 mins</text><rect x="415" y="156" width="300" height="5" rx="2.5" fill="#141414"/><rect x="415" y="156" width="0" height="5" rx="2.5" fill="#6E7681" fill-opacity=".85"><animate attributeName="width" values="0;73.7" dur="1.2s" begin="0.32s" fill="freeze" calcMode="spline" keySplines="0.2 0.7 0.3 1"/></rect><text x="726" y="150" text-anchor="end" font-family="ui-monospace,'JetBrains Mono','Fira Code',Consolas,monospace" font-size="11" font-weight="700" fill="#6E7681">24.6%</text></g>
<g opacity="0"><animate attributeName="opacity" values="0;1" dur="0.45s" begin="0.24s" fill="freeze"/><circle cx="400" cy="178" r="4.2" fill="#3178C6"><animate attributeName="opacity" values="1;.35;1" dur="3.0s" begin="0.60s" repeatCount="indefinite"/></circle><text x="415" y="182" font-family="ui-monospace,'JetBrains Mono','Fira Code',Consolas,monospace" font-size="12" font-weight="700" fill="#3178C6">TypeScript</text><text x="540" y="182" font-family="ui-monospace,'JetBrains Mono','Fira Code',Consolas,monospace" font-size="11" fill="#8B949E">9 mins</text><rect x="415" y="188" width="300" height="5" rx="2.5" fill="#141414"/><rect x="415" y="188" width="0" height="5" rx="2.5" fill="#3178C6" fill-opacity=".85"><animate attributeName="width" values="0;25.4" dur="1.2s" begin="0.44s" fill="freeze" calcMode="spline" keySplines="0.2 0.7 0.3 1"/></rect><text x="726" y="182" text-anchor="end" font-family="ui-monospace,'JetBrains Mono','Fira Code',Consolas,monospace" font-size="11" font-weight="700" fill="#3178C6">8.5%</text></g>
</svg>
